<?xml version="1.0" encoding="utf-8"?>
<!-- Generator: Adobe Illustrator 26.0.2, SVG Export Plug-In . SVG Version: 6.00 Build 0)  -->
<svg version="1.1" id="Layer_1" xmlns="http://www.w3.org/2000/svg" xmlns:xlink="http://www.w3.org/1999/xlink" x="0px" y="0px"
	 viewBox="0 0 418.6 328.89" style="enable-background:new 0 0 418.6 328.89;" xml:space="preserve">
<style type="text/css">
	.st0{stroke:#000000;stroke-miterlimit:10;}
	.st1{fill:#FFFFFF;stroke:#000000;stroke-miterlimit:10;}
</style>
<g>
	<rect class="st0" width="418.6" height="334.46"/>
	<path class="st1" d="M224.1,37.01c13.8,3.64,28.29,5.67,41.28,11.2c45.69,19.48,72.53,66.49,68.78,116.01
		c-2.69,35.49-16.58,65.02-45.95,85.19c-62.59,42.98-150.12,11.59-162.72-64.72c-9.43-57.11,31.89-107.31,90.16-106.25
		c31.81,0.58,55.81,15.92,69.51,44.94c12.87,27.26,10.81,54.14-7.98,78.04c-16.03,20.4-38.5,26.68-63.43,22.02
		c-22.44-4.2-38.69-17.05-45.59-39.55c-5.68-18.51-2.3-35.36,11.97-48.99c13.07-12.49,28.66-16.9,46.23-11.52
		c14.71,4.5,23.22,18.04,22.35,34.37c-0.71,13.4-9.92,23.88-23.57,26.84c-7.19,1.56-13.33-1.94-15.01-8.53
		c-1.46-5.72,2.22-12.19,8.67-13.78c4.44-1.1,7.1-3,6.86-7.66c-0.24-4.71-2.53-7.95-7.27-9.45c-14.28-4.51-31.14,9.75-29.48,25.03
		c2.26,20.81,22.12,34.42,43.97,31.16c32.63-4.86,42.32-38.73,34.03-61.88c-13.53-37.82-58.78-50.19-92.36-25.15
		c-36.39,27.14-36.34,83.46,0.26,112.78c26.76,21.43,56.56,23.92,87.06,10.6c29.3-12.79,44.64-37.05,48.46-68.49
		c4.31-35.41-6.26-65.58-34.44-87.95c-54.53-43.26-140.76-17.53-162.27,48.63c-11.2,34.43-9.89,68.55,10.33,100.06
		c10.19,15.88,24.85,27.1,41.14,36.19c4.85,2.71,8.53,5.94,8.52,11.78c-0.01,5.88-3.76,9.24-8.75,11.51c-2.15,0-4.29,0-6.44,0
		c-3.81-2.32-7.64-4.62-11.43-6.97c-24.14-14.95-43.23-34.43-53.84-61.18c-8.38-21.14-9.85-43.19-8.38-65.74
		c3.32-50.82,36.62-94.94,85.1-111.01c10.46-3.47,21.55-5.06,32.35-7.51C209.51,37.01,216.81,37.01,224.1,37.01z"/>
</g>
</svg>
